<svg width="24" height="24" viewBox="0 0 24 24" fill="none" xmlns="http://www.w3.org/2000/svg">
<path fill-rule="evenodd" clip-rule="evenodd" d="M20 15.4985C18.8 15.4985 17.6 15.2985 16.4 14.8985C16.1 14.7985 15.7 14.8985 15.4 15.0985L13.2 17.2985C10.4 15.8985 8.1 13.4985 6.6 10.6985L8.8 8.49854C9.1 8.19853 9.2 7.79854 9 7.49854C8.7 6.39854 8.5 5.19854 8.5 3.99854C8.5 3.39854 8.1 2.99854 7.5 2.99854H4C3.4 2.99854 3 3.39854 3 3.99854C3 13.3985 10.6 20.9985 20 20.9985C20.6 20.9985 21 20.5985 21 19.9985V16.4985C21 15.8985 20.6 15.4985 20 15.4985ZM19 11.9985H21C21 6.99854 17 2.99854 12 2.99854V4.99854C15.9 4.99854 19 8.09854 19 11.9985ZM15 11.9985H17C17 9.19853 14.8 6.99854 12 6.99854V8.99854C13.7 8.99854 15 10.2985 15 11.9985Z" fill="white"/>
</svg>
